<svg xmlns="http://www.w3.org/2000/svg" viewBox="0 0 512 512">
  <defs>
    <linearGradient id="bg512" x1="0%" y1="0%" x2="100%" y2="100%">
      <stop offset="0%" stop-color="#F5F2FC"/>
      <stop offset="100%" stop-color="#EAE7F1"/>
    </linearGradient>
    <radialGradient id="glow512" cx="50%" cy="50%" r="50%">
      <stop offset="50%" stop-color="#31BEEF" stop-opacity="0.2"/>
      <stop offset="100%" stop-color="#31BEEF" stop-opacity="0"/>
    </radialGradient>
  </defs>

  <!-- Fondo -->
  <rect width="512" height="512" fill="url(#bg512)"/>

  <!-- Glow -->
  <circle cx="256" cy="256" r="210" fill="url(#glow512)"/>

  <!-- Partículas del orb - Capa trasera -->
  <circle cx="155" cy="185" r="11" fill="#994E95" opacity="0.35"/>
  <circle cx="357" cy="170" r="10" fill="#A1B8F2" opacity="0.3"/>
  <circle cx="300" cy="325" r="11" fill="#31BEEF" opacity="0.35"/>
  <circle cx="128" cy="282" r="8.5" fill="#994E95" opacity="0.3"/>
  <circle cx="368" cy="298" r="10" fill="#A1B8F2" opacity="0.35"/>
  <circle cx="200" cy="352" r="8.5" fill="#31BEEF" opacity="0.3"/>
  <circle cx="320" cy="160" r="9" fill="#994E95" opacity="0.32"/>
  <circle cx="145" cy="320" r="9" fill="#A1B8F2" opacity="0.33"/>

  <!-- Capa media -->
  <circle cx="185" cy="155" r="14" fill="#31BEEF" opacity="0.55"/>
  <circle cx="325" cy="212" r="13" fill="#A1B8F2" opacity="0.5"/>
  <circle cx="213" cy="282" r="15" fill="#994E95" opacity="0.55"/>
  <circle cx="143" cy="232" r="11" fill="#31BEEF" opacity="0.45"/>
  <circle cx="340" cy="305" r="11" fill="#A1B8F2" opacity="0.5"/>
  <circle cx="256" cy="170" r="13" fill="#994E95" opacity="0.45"/>
  <circle cx="170" cy="310" r="11" fill="#31BEEF" opacity="0.5"/>
  <circle cx="355" cy="240" r="11" fill="#A1B8F2" opacity="0.45"/>
  <circle cx="225" cy="345" r="12" fill="#994E95" opacity="0.48"/>
  <circle cx="380" cy="265" r="10" fill="#31BEEF" opacity="0.45"/>
  <circle cx="135" cy="265" r="10" fill="#A1B8F2" opacity="0.42"/>
  <circle cx="290" cy="155" r="11" fill="#994E95" opacity="0.45"/>

  <!-- Capa frontal -->
  <circle cx="205" cy="220" r="20" fill="#31BEEF" opacity="0.8"/>
  <circle cx="290" cy="250" r="17" fill="#A1B8F2" opacity="0.75"/>
  <circle cx="175" cy="268" r="15.5" fill="#994E95" opacity="0.7"/>
  <circle cx="305" cy="192" r="14" fill="#31BEEF" opacity="0.75"/>
  <circle cx="240" cy="305" r="18" fill="#A1B8F2" opacity="0.8"/>
  <circle cx="335" cy="260" r="14" fill="#994E95" opacity="0.65"/>
  <circle cx="192" cy="325" r="13" fill="#31BEEF" opacity="0.7"/>
  <circle cx="270" cy="205" r="15.5" fill="#A1B8F2" opacity="0.75"/>
  <circle cx="227" cy="240" r="17" fill="#994E95" opacity="0.75"/>
  <circle cx="318" cy="282" r="14" fill="#31BEEF" opacity="0.7"/>
  <circle cx="165" cy="205" r="13" fill="#A1B8F2" opacity="0.65"/>
  <circle cx="278" cy="325" r="14" fill="#994E95" opacity="0.7"/>
  <circle cx="252" cy="275" r="16" fill="#31BEEF" opacity="0.72"/>
  <circle cx="195" cy="290" r="13" fill="#A1B8F2" opacity="0.68"/>
  <circle cx="310" cy="225" r="13" fill="#994E95" opacity="0.65"/>
  <circle cx="220" cy="185" r="12" fill="#31BEEF" opacity="0.65"/>

  <!-- Brillos blancos -->
  <circle cx="200" cy="212" r="8.5" fill="#FFFFFF" opacity="0.9"/>
  <circle cx="270" cy="232" r="7" fill="#FFFFFF" opacity="0.85"/>
  <circle cx="222" cy="260" r="5.5" fill="#FFFFFF" opacity="0.8"/>
  <circle cx="298" cy="185" r="5.5" fill="#FFFFFF" opacity="0.75"/>
  <circle cx="175" cy="250" r="5" fill="#FFFFFF" opacity="0.7"/>
  <circle cx="250" cy="200" r="6" fill="#FFFFFF" opacity="0.8"/>
  <circle cx="235" cy="290" r="5" fill="#FFFFFF" opacity="0.72"/>
  <circle cx="285" cy="265" r="4.5" fill="#FFFFFF" opacity="0.68"/>
</svg>
